<?xml version="1.0" encoding="utf-8"?>
<!-- Generator: Adobe Illustrator 27.7.0, SVG Export Plug-In . SVG Version: 6.00 Build 0)  -->
<svg version="1.1" id="Camada_1" xmlns="http://www.w3.org/2000/svg" xmlns:xlink="http://www.w3.org/1999/xlink" x="0px" y="0px"
	 viewBox="0 0 1080 1080" style="enable-background:new 0 0 1080 1080;" xml:space="preserve">
<style type="text/css">
	.st0{fill:#FFFFFF;}
</style>
<path class="st0" d="M638.03,836.31c-65.51,0-131.05,0-196.55,0l-40.46,84.07h-66.75c-3.43,0-6.23,2.8-6.23,6.23v33.41
	c0,3.43,2.8,6.23,6.23,6.23h410.95c3.43,0,6.23-2.8,6.23-6.23v-33.41c0-3.43-2.8-6.23-6.23-6.23h-66.73L638.03,836.31z M328.05,113
	h423.42v68.47H328.05V113z M584.71,366.43l160.47,92.64L584.71,551.7v80.62l230.3-132.95v-80.64l-230.3-132.95V366.43z
	 M334.34,459.07l160.47-92.64v-80.64l-230.3,132.95v80.64l230.3,132.95V551.7L334.34,459.07z M264.84,181.47h-80.87
	c-6.76,0-12.89,2.74-17.33,7.17c-4.43,4.43-7.17,10.56-7.17,17.32v194.36c0,22.27-7.85,42.72-20.9,58.74
	c13.05,16,20.9,36.45,20.9,58.72v194.36c0,6.78,2.74,12.91,7.17,17.33c4.44,4.43,10.56,7.17,17.33,7.17h80.87v68.46h-80.87
	c-25.66,0-48.91-10.4-65.73-27.24c-16.81-16.81-27.24-40.06-27.24-65.73V517.78c0-6.76-2.73-12.89-7.17-17.33
	c-4.44-4.43-10.56-7.17-17.33-7.17H18.64v-68.47h47.87c6.86,0,12.97-2.7,17.33-7.05v-0.12c4.43-4.43,7.17-10.56,7.17-17.32V205.96
	c0-25.66,10.42-48.91,27.24-65.73c16.82-16.81,40.07-27.24,65.73-27.24h80.87V181.47z M814.68,181.47h80.87
	c6.76,0,12.89,2.74,17.33,7.17c4.41,4.43,7.17,10.56,7.17,17.32v194.36c0,22.27,7.85,42.72,20.9,58.74
	c-13.06,16-20.9,36.45-20.9,58.72v194.36c0,6.78-2.76,12.91-7.17,17.33c-4.44,4.43-10.56,7.17-17.33,7.17h-80.87v68.46h80.87
	c25.66,0,48.91-10.4,65.73-27.24c16.81-16.81,27.23-40.06,27.23-65.73V517.78c0-6.76,2.74-12.89,7.17-17.33
	c4.43-4.43,10.56-7.17,17.33-7.17h47.85v-68.47h-47.85c-6.86,0-12.97-2.7-17.33-7.05v-0.12c-4.43-4.43-7.17-10.56-7.17-17.32V205.96
	c0-25.66-10.42-48.91-27.23-65.73C944.46,123.42,921.21,113,895.55,113h-80.87V181.47z M328.05,736.64h423.42v68.46H328.05V736.64z"
	/>
</svg>
